<svg width="135" height="81" viewBox="0 0 135 81" fill="none" xmlns="http://www.w3.org/2000/svg">
<g filter="url(#filter0_i_42_4)">
<path d="M3.648 26.912C3.41333 26.912 3.072 26.88 2.624 26.816C2.176 26.752 1.77067 26.6133 1.408 26.4C1.024 26.1867 0.832 25.8453 0.832 25.376C0.832 25.12 0.896 24.9173 1.024 24.768C1.10933 24.6613 1.19467 24.608 1.28 24.608C1.36533 24.608 1.39733 24.6613 1.376 24.768C1.29067 25.088 1.408 25.3867 1.728 25.664C2.02667 25.9627 2.32533 26.1547 2.624 26.24C2.96533 26.3253 3.328 26.368 3.712 26.368C4.544 26.368 5.312 26.1547 6.016 25.728C6.74133 25.3013 7.38133 24.768 7.936 24.128C7.14667 23.5733 6.44267 22.88 5.824 22.048C5.22667 21.216 4.928 20.2773 4.928 19.232C4.928 18.912 4.96 18.592 5.024 18.272C5.25867 17.12 5.84533 16.224 6.784 15.584C7.27467 15.2427 7.82933 15.072 8.448 15.072C8.85333 15.072 9.216 15.1467 9.536 15.296C9.87733 15.424 10.112 15.584 10.24 15.776V15.808C10.24 15.8933 10.1973 15.9787 10.112 16.064C10.0267 16.128 9.96267 16.1387 9.92 16.096C9.77067 15.8187 9.48267 15.68 9.056 15.68C8.82133 15.68 8.56533 15.7333 8.288 15.84C8.01067 15.9253 7.75467 16.0853 7.52 16.32C7.24267 16.5547 7.01867 16.8533 6.848 17.216C6.67733 17.5573 6.53867 17.92 6.432 18.304C6.304 18.752 6.24 19.1893 6.24 19.616C6.24 20.4693 6.44267 21.2373 6.848 21.92C7.25333 22.6027 7.75467 23.1893 8.352 23.68C9.12 22.72 9.83467 21.632 10.496 20.416C11.1787 19.2 11.7973 18.016 12.352 16.864C12.928 15.6907 13.44 14.7093 13.888 13.92C15.552 10.9973 17.152 8.736 18.688 7.136C20.2453 5.51467 21.6853 4.704 23.008 4.704C23.2853 4.704 23.552 4.736 23.808 4.8C23.8933 4.82133 23.9147 4.87467 23.872 4.96C23.8293 5.04533 23.7653 5.07733 23.68 5.056C23.5947 5.03467 23.5093 5.024 23.424 5.024C23.36 5.00267 23.2853 4.992 23.2 4.992C22.56 4.992 21.8667 5.312 21.12 5.952C20.3733 6.57067 19.6053 7.43467 18.816 8.544C18.0267 9.632 17.2373 10.8907 16.448 12.32C16.7253 12.1493 17.0453 12.032 17.408 11.968C17.792 11.8827 18.1867 11.84 18.592 11.84C19.2107 11.84 19.8293 11.904 20.448 12.032C21.088 12.16 21.6213 12.3093 22.048 12.48C23.008 11.7333 23.776 10.8053 24.352 9.696C24.9493 8.58667 25.248 7.52 25.248 6.496C25.248 5.472 24.9813 4.65067 24.448 4.032C23.9147 3.41333 23.2427 2.944 22.432 2.624C21.6213 2.304 20.768 2.09067 19.872 1.984C18.976 1.87733 18.1547 1.824 17.408 1.824C16.2133 1.824 15.0187 1.952 13.824 2.208C12.6507 2.464 11.5627 2.83733 10.56 3.328C9.55733 3.79733 8.704 4.37333 8 5.056C7.424 5.61067 6.88 6.34667 6.368 7.264C5.856 8.18133 5.6 9.10933 5.6 10.048C5.6 10.432 5.664 10.8053 5.792 11.168C6.00533 11.7653 6.38933 12.2347 6.944 12.576C7.49867 12.896 8.13867 13.056 8.864 13.056C9.14133 13.056 9.42933 13.024 9.728 12.96C10.0267 12.896 10.3253 12.8213 10.624 12.736H10.688C10.752 12.736 10.784 12.768 10.784 12.832C10.784 12.9173 10.7307 12.9813 10.624 13.024C10.048 13.216 9.45067 13.312 8.832 13.312C8.10667 13.312 7.424 13.1733 6.784 12.896C6.144 12.5973 5.62133 12.16 5.216 11.584C4.81067 11.008 4.608 10.2933 4.608 9.44C4.608 8.77867 4.69333 8.17067 4.864 7.616C5.056 7.06133 5.312 6.53867 5.632 6.048C6.336 5.00267 7.328 4.13867 8.608 3.456C9.888 2.77333 11.3067 2.26133 12.864 1.92C14.4213 1.57867 15.968 1.408 17.504 1.408C18.2293 1.408 19.0613 1.46133 20 1.568C20.96 1.67467 21.9093 1.87733 22.848 2.176C23.7867 2.45333 24.608 2.85867 25.312 3.392C26.0373 3.92533 26.5387 4.608 26.816 5.44C26.944 5.84533 27.008 6.28267 27.008 6.752C27.008 7.60533 26.7947 8.46933 26.368 9.344C25.9413 10.1973 25.408 10.944 24.768 11.584C24.2773 12.1173 23.68 12.5867 22.976 12.992C23.9787 13.4827 24.7253 14.1547 25.216 15.008C25.7067 15.84 25.952 16.736 25.952 17.696C25.952 18.6987 25.696 19.7013 25.184 20.704C24.672 21.7067 23.9147 22.6133 22.912 23.424C21.9307 24.2347 20.704 24.8533 19.232 25.28C18.5493 25.472 17.8133 25.6213 17.024 25.728C16.256 25.8347 15.4667 25.888 14.656 25.888C13.824 25.888 12.992 25.824 12.16 25.696C11.328 25.568 10.528 25.3653 9.76 25.088C9.632 25.0453 9.49333 24.992 9.344 24.928C9.19467 24.864 9.056 24.7893 8.928 24.704C7.776 25.728 6.528 26.4 5.184 26.72C4.672 26.848 4.16 26.912 3.648 26.912ZM17.76 14.208C18.4427 14.208 19.0933 14.1013 19.712 13.888C20.352 13.6533 20.9493 13.3333 21.504 12.928C21.0987 12.672 20.64 12.5013 20.128 12.416C19.616 12.3093 19.0293 12.256 18.368 12.256C17.7493 12.256 17.2587 12.384 16.896 12.64C16.5333 12.896 16.352 13.1627 16.352 13.44C16.352 13.6533 16.4587 13.8347 16.672 13.984C16.9067 14.1333 17.2693 14.208 17.76 14.208ZM19.072 24.672C20.16 24.2027 21.0667 23.584 21.792 22.816C22.5387 22.0267 23.104 21.1627 23.488 20.224C23.872 19.2853 24.064 18.368 24.064 17.472C24.064 16.6613 23.904 15.904 23.584 15.2C23.2853 14.496 22.816 13.9093 22.176 13.44C21.5147 13.76 20.7893 14.0267 20 14.24C19.232 14.4533 18.4427 14.56 17.632 14.56C17.0347 14.56 16.5867 14.4853 16.288 14.336C15.9893 14.1653 15.7867 13.9947 15.68 13.824C15.4027 14.3573 15.136 14.912 14.88 15.488C14.624 16.064 14.3573 16.64 14.08 17.216C13.5253 18.368 12.8533 19.584 12.064 20.864C11.296 22.144 10.3893 23.2853 9.344 24.288C9.472 24.3733 9.6 24.4373 9.728 24.48C9.856 24.544 9.984 24.5973 10.112 24.64C10.816 24.896 11.5627 25.088 12.352 25.216C13.1413 25.344 13.9307 25.408 14.72 25.408C15.552 25.408 16.3413 25.3333 17.088 25.184C17.856 25.056 18.5173 24.8853 19.072 24.672ZM37.116 24.224C36.3907 24.224 35.8787 24.0107 35.58 23.584C35.3027 23.1573 35.164 22.6987 35.164 22.208C35.164 21.9947 35.1853 21.792 35.228 21.6C35.2707 21.3867 35.324 21.184 35.388 20.992C35.7507 20.0533 36.252 19.1573 36.892 18.304C37.532 17.4507 38.0653 16.5653 38.492 15.648C38.6413 15.3707 38.716 15.1147 38.716 14.88C38.716 14.624 38.6413 14.432 38.492 14.304C38.3427 14.176 38.1827 14.112 38.012 14.112C37.6067 14.112 37.1587 14.2933 36.668 14.656C36.1987 14.9973 35.74 15.4347 35.292 15.968C34.8867 16.4373 34.4707 16.9813 34.044 17.6C33.6173 18.1973 33.212 18.8373 32.828 19.52C32.4653 20.1387 32.092 20.7893 31.708 21.472C31.324 22.1333 31.0147 22.6987 30.78 23.168C30.6093 23.5307 30.428 23.7653 30.236 23.872C30.044 23.9787 29.8627 24.032 29.692 24.032C29.6067 24.032 29.5213 24.0213 29.436 24C29.3507 24 29.276 24 29.212 24C29.404 23.2747 29.756 22.2827 30.268 21.024C30.8013 19.744 31.4307 18.2293 32.156 16.48C32.5613 15.5413 33.0413 14.464 33.596 13.248C34.1507 12.0107 34.78 10.752 35.484 9.472C36.188 8.17067 36.9667 6.944 37.82 5.792C38.6733 4.61867 39.5907 3.59467 40.572 2.72C41.5747 1.84533 42.6307 1.23733 43.74 0.895998C43.868 0.874665 43.996 0.853332 44.124 0.831999C44.252 0.810666 44.38 0.799999 44.508 0.799999C44.828 0.799999 45.1053 0.874666 45.34 1.024C45.6387 1.216 45.788 1.55733 45.788 2.048C45.788 2.38933 45.692 2.80533 45.5 3.296C45.1587 4.14933 44.5933 5.06667 43.804 6.048C43.036 7.02933 42.1293 8.032 41.084 9.056C39.7827 10.3147 38.5347 11.424 37.34 12.384C36.1453 13.344 35.1853 14.1013 34.46 14.656C34.0333 15.5733 33.6813 16.3733 33.404 17.056C33.1267 17.7173 32.9453 18.1973 32.86 18.496C33.2013 17.984 33.5853 17.4293 34.012 16.832C34.46 16.2133 34.8547 15.7333 35.196 15.392C35.6867 14.9013 36.1773 14.4853 36.668 14.144C37.1587 13.8027 37.6387 13.6107 38.108 13.568C38.8333 13.504 39.356 13.6 39.676 13.856C39.996 14.0907 40.156 14.4427 40.156 14.912C40.156 15.3813 40.028 15.904 39.772 16.48C39.4947 17.1413 39.164 17.8027 38.78 18.464C38.396 19.1253 38.044 19.7653 37.724 20.384C37.6387 20.5547 37.4787 20.8853 37.244 21.376C37.0307 21.8453 36.892 22.2933 36.828 22.72C36.828 22.7413 36.8173 22.7733 36.796 22.816C36.796 22.8587 36.796 22.9013 36.796 22.944C36.796 23.1787 36.86 23.36 36.988 23.488C37.116 23.5947 37.2653 23.648 37.436 23.648C37.7987 23.648 38.14 23.5307 38.46 23.296C38.78 23.0613 39.0573 22.8053 39.292 22.528C39.7827 21.9947 40.2307 21.408 40.636 20.768C41.0413 20.128 41.4467 19.4453 41.852 18.72C41.916 18.6347 41.98 18.592 42.044 18.592C42.1293 18.592 42.172 18.656 42.172 18.784C42.172 18.8907 42.1507 18.976 42.108 19.04C41.724 19.744 41.308 20.448 40.86 21.152C40.4333 21.856 39.9107 22.5173 39.292 23.136C39.0147 23.4133 38.6947 23.6693 38.332 23.904C37.9693 24.1173 37.564 24.224 37.116 24.224ZM34.748 14.016C36.028 13.0773 37.18 12.128 38.204 11.168C39.228 10.208 40.2627 9.17333 41.308 8.064C41.6067 7.744 41.9907 7.31733 42.46 6.784C42.9507 6.25067 43.4307 5.67467 43.9 5.056C44.3693 4.43733 44.7213 3.84 44.956 3.264C45.1693 2.77333 45.276 2.35733 45.276 2.016C45.276 1.44 45.0093 1.152 44.476 1.152C44.1987 1.152 43.8893 1.23733 43.548 1.408C43.2067 1.57867 42.8867 1.81333 42.588 2.112C41.564 3.072 40.5613 4.24533 39.58 5.632C38.62 6.99733 37.724 8.416 36.892 9.888C36.0813 11.36 35.3667 12.736 34.748 14.016ZM45.8538 24.192C45.1924 24.192 44.7124 24 44.4138 23.616C44.1364 23.232 43.9978 22.7627 43.9978 22.208C43.9978 21.504 44.1364 20.736 44.4138 19.904C44.7124 19.072 45.0538 18.2827 45.4378 17.536C45.8218 16.768 46.1311 16.1707 46.3658 15.744C46.8351 14.9547 47.3044 14.464 47.7738 14.272C48.2644 14.08 48.8618 13.984 49.5658 13.984C49.3524 14.048 49.0751 14.304 48.7338 14.752C48.3924 15.1787 48.0298 15.712 47.6458 16.352C47.2831 16.992 46.9311 17.6853 46.5898 18.432C46.2698 19.1573 46.0031 19.872 45.7898 20.576C45.5978 21.2587 45.5018 21.8453 45.5018 22.336C45.5018 22.6987 45.5658 22.9973 45.6938 23.232C45.8431 23.4667 46.0671 23.584 46.3658 23.584C46.6218 23.584 46.9204 23.488 47.2618 23.296C47.6031 23.0827 47.9124 22.8267 48.1898 22.528C49.1284 21.4827 49.8858 20.3413 50.4618 19.104C51.0591 17.8453 51.7204 16.5973 52.4458 15.36C52.9151 14.5707 53.3844 14.08 53.8538 13.888C54.3444 13.696 54.9418 13.6 55.6458 13.6C55.4324 13.664 55.1444 13.9307 54.7818 14.4C54.4191 14.848 54.0351 15.4133 53.6298 16.096C53.2458 16.7787 52.8831 17.5147 52.5418 18.304C52.2004 19.072 51.9124 19.8187 51.6778 20.544C51.4644 21.2693 51.3578 21.888 51.3578 22.4C51.3578 22.7413 51.4218 23.0293 51.5498 23.264C51.6991 23.4773 51.9124 23.584 52.1898 23.584C52.4458 23.584 52.7444 23.4773 53.0858 23.264C53.4271 23.0507 53.7364 22.8053 54.0138 22.528C54.5044 21.9947 54.9524 21.408 55.3578 20.768C55.7631 20.128 56.1684 19.4453 56.5738 18.72C56.6378 18.6347 56.6911 18.592 56.7338 18.592C56.8191 18.592 56.8618 18.656 56.8618 18.784C56.8618 18.8907 56.8404 18.976 56.7978 19.04C56.4138 19.744 56.0084 20.448 55.5818 21.152C55.1551 21.856 54.6324 22.5173 54.0138 23.136C53.6724 23.4773 53.2671 23.7653 52.7978 24C52.3498 24.2133 51.9018 24.2773 51.4538 24.192C50.8564 24.0853 50.4298 23.8507 50.1738 23.488C49.9178 23.104 49.7898 22.6453 49.7898 22.112C49.7898 21.6853 49.8538 21.2373 49.9818 20.768C49.7258 21.1733 49.4484 21.5787 49.1498 21.984C48.8724 22.3893 48.5524 22.7733 48.1898 23.136C47.8911 23.4347 47.5284 23.6907 47.1018 23.904C46.6964 24.096 46.2804 24.192 45.8538 24.192ZM49.993 34.72C49.3317 34.9547 48.6597 35.072 47.977 35.072C47.0383 35.072 46.1957 34.848 45.449 34.4C44.7023 33.952 44.329 33.2693 44.329 32.352C44.329 32.1813 44.3397 32.0107 44.361 31.84C44.3823 31.6907 44.425 31.52 44.489 31.328C44.553 31.1787 44.6063 31.1147 44.649 31.136C44.6703 31.1787 44.681 31.2427 44.681 31.328C44.681 32.3733 45.0437 33.1733 45.769 33.728C46.473 34.2827 47.2943 34.56 48.233 34.56C48.809 34.56 49.3637 34.464 49.897 34.272C50.7717 33.9733 51.5503 33.504 52.233 32.864C52.9157 32.224 53.5023 31.5413 53.993 30.816C54.4623 30.1333 54.9317 29.344 55.401 28.448C55.8703 27.552 56.3183 26.6133 56.745 25.632C57.1717 24.6507 57.577 23.7013 57.961 22.784C58.345 21.8453 58.6757 21.0133 58.953 20.288C59.273 19.456 59.6463 18.5493 60.073 17.568C60.521 16.5867 61.0117 15.6053 61.545 14.624C62.0783 13.6213 62.6543 12.7147 63.273 11.904C63.913 11.072 64.5743 10.4 65.257 9.888C65.7477 9.504 66.2597 9.312 66.793 9.312C66.8783 9.312 66.953 9.312 67.017 9.312C67.1023 9.312 67.1877 9.33333 67.273 9.376C67.3157 9.39733 67.337 9.42933 67.337 9.472C67.337 9.49333 67.2943 9.504 67.209 9.504C66.9957 9.52533 66.7397 9.632 66.441 9.824C66.1423 9.99467 65.7797 10.368 65.353 10.944C65.1823 11.2 64.7983 11.744 64.201 12.576C63.625 13.408 63.081 14.4107 62.569 15.584C63.1877 14.88 63.7637 14.3787 64.297 14.08C64.8303 13.7813 65.3103 13.632 65.737 13.632C66.4197 13.632 66.889 13.8027 67.145 14.144C67.401 14.4853 67.529 14.912 67.529 15.424C67.529 15.8933 67.4437 16.3947 67.273 16.928C67.1237 17.4613 66.9317 17.9733 66.697 18.464C66.4837 18.9547 66.281 19.3707 66.089 19.712C65.9397 19.9893 65.7157 20.32 65.417 20.704C65.1183 21.088 64.777 21.4827 64.393 21.888C64.457 22.1867 64.585 22.4 64.777 22.528C64.9903 22.656 65.2357 22.72 65.513 22.72C65.8117 22.72 66.121 22.656 66.441 22.528C66.7823 22.4 67.0597 22.24 67.273 22.048C67.7637 21.6427 68.2117 21.1627 68.617 20.608C69.0223 20.0533 69.3957 19.4773 69.737 18.88C69.7583 18.8373 69.769 18.816 69.769 18.816C69.7903 18.816 69.801 18.816 69.801 18.816C69.8437 18.816 69.865 18.912 69.865 19.104C69.865 19.1893 69.865 19.2747 69.865 19.36C69.865 19.424 69.8437 19.488 69.801 19.552C69.4383 20.192 69.065 20.768 68.681 21.28C68.297 21.7707 67.8277 22.208 67.273 22.592C66.9957 22.7627 66.6863 22.912 66.345 23.04C66.025 23.1467 65.705 23.2 65.385 23.2C65.065 23.2 64.777 23.136 64.521 23.008C64.2863 22.8587 64.1157 22.624 64.009 22.304C63.6463 22.6453 63.209 22.9973 62.697 23.36C62.2063 23.7013 61.6943 23.8933 61.161 23.936C61.0757 23.9573 60.9903 23.968 60.905 23.968C60.841 23.968 60.777 23.968 60.713 23.968C59.9663 23.968 59.5077 23.68 59.337 23.104C59.017 24.0213 58.569 25.056 57.993 26.208C57.417 27.36 56.7343 28.5013 55.945 29.632C55.1557 30.784 54.2703 31.808 53.289 32.704C52.2863 33.6213 51.1877 34.2933 49.993 34.72ZM60.521 23.488C60.905 23.488 61.289 23.3387 61.673 23.04C62.0783 22.72 62.4623 22.3253 62.825 21.856C63.209 21.3867 63.561 20.896 63.881 20.384C64.2223 19.872 64.4997 19.4133 64.713 19.008C64.841 18.7947 65.0117 18.464 65.225 18.016C65.4383 17.5467 65.6303 17.0453 65.801 16.512C65.9717 15.9787 66.057 15.5093 66.057 15.104C66.057 14.8053 66.0037 14.5707 65.897 14.4C65.7903 14.2293 65.5877 14.144 65.289 14.144C64.9477 14.144 64.553 14.336 64.105 14.72C63.6783 15.104 63.241 15.584 62.793 16.16C62.3663 16.736 61.9717 17.312 61.609 17.888C61.5237 18.0373 61.3743 18.2933 61.161 18.656C60.9477 19.0187 60.7237 19.4347 60.489 19.904C60.2757 20.3733 60.0837 20.8427 59.913 21.312C59.7637 21.7813 59.689 22.1973 59.689 22.56C59.689 23.1787 59.9663 23.488 60.521 23.488ZM75.9275 24.256C74.6902 24.256 73.8155 23.936 73.3035 23.296C73.0475 23.0187 72.8662 22.688 72.7595 22.304C72.6528 21.92 72.5995 21.5253 72.5995 21.12C72.5995 20.608 72.6635 20.096 72.7915 19.584C72.9195 19.0507 73.0795 18.56 73.2715 18.112C73.5702 17.408 73.9648 16.704 74.4555 16C74.9462 15.2747 75.5328 14.6667 76.2155 14.176C76.9195 13.6853 77.6875 13.44 78.5195 13.44C79.0742 13.44 79.5115 13.5787 79.8315 13.856C80.1515 14.1333 80.3115 14.56 80.3115 15.136C80.3115 15.7973 80.1088 16.4693 79.7035 17.152C79.2982 17.8133 78.7862 18.368 78.1675 18.816C77.5488 19.264 76.9088 19.488 76.2475 19.488C75.6502 19.488 75.1275 19.2747 74.6795 18.848C74.5515 19.1893 74.4448 19.5733 74.3595 20C74.2742 20.4053 74.2315 20.8213 74.2315 21.248C74.2315 21.9093 74.3595 22.4853 74.6155 22.976C74.8928 23.4667 75.3835 23.712 76.0875 23.712C76.5995 23.712 77.0902 23.584 77.5595 23.328C78.0502 23.0507 78.4875 22.72 78.8715 22.336C79.2982 21.888 79.7035 21.408 80.0875 20.896C80.4715 20.384 80.8448 19.7867 81.2075 19.104C81.2502 19.04 81.2822 19.008 81.3035 19.008C81.3888 19.008 81.4315 19.104 81.4315 19.296C81.4315 19.424 81.3888 19.5627 81.3035 19.712C80.9835 20.288 80.6102 20.8747 80.1835 21.472C79.7568 22.048 79.3195 22.5493 78.8715 22.976C78.4662 23.36 78.0288 23.6693 77.5595 23.904C77.0902 24.1387 76.5462 24.256 75.9275 24.256ZM74.8395 18.368C74.9888 18.5813 75.1595 18.7413 75.3515 18.848C75.5648 18.9333 75.7782 18.976 75.9915 18.976C76.5035 18.976 77.0368 18.784 77.5915 18.4C78.1462 17.9947 78.5942 17.5253 78.9355 16.992C79.0848 16.7573 79.2128 16.448 79.3195 16.064C79.4475 15.68 79.5115 15.3173 79.5115 14.976C79.5115 14.6773 79.4475 14.4213 79.3195 14.208C79.2128 13.9733 78.9888 13.856 78.6475 13.856C78.2635 13.856 77.8048 14.0907 77.2715 14.56C76.7595 15.0293 76.2688 15.6373 75.7995 16.384C75.6502 16.64 75.4795 16.9387 75.2875 17.28C75.1168 17.6213 74.9675 17.984 74.8395 18.368ZM90.3185 24.192C89.6998 24.192 89.2092 24 88.8465 23.616C88.5052 23.232 88.3345 22.752 88.3345 22.176C88.3345 21.8987 88.3878 21.5787 88.4945 21.216C88.7932 20.2773 89.2625 19.3493 89.9025 18.432C90.5638 17.4933 91.1078 16.5653 91.5345 15.648C91.6838 15.3493 91.7585 15.0827 91.7585 14.848C91.7585 14.6133 91.6838 14.4427 91.5345 14.336C91.4065 14.208 91.2465 14.144 91.0545 14.144C90.7772 14.144 90.4252 14.2613 89.9985 14.496C89.5932 14.7093 89.1238 15.1253 88.5905 15.744C88.2705 16.128 87.9078 16.5973 87.5025 17.152C87.0972 17.7067 86.7665 18.208 86.5105 18.656C86.0838 19.3813 85.6998 20.1173 85.3585 20.864C85.0172 21.5893 84.7185 22.2613 84.4625 22.88C84.2492 23.3707 83.9932 23.6907 83.6945 23.84C83.3958 23.968 83.1078 24.0213 82.8305 24C82.5532 23.9787 82.3398 23.9787 82.1905 24C82.7878 22.8267 83.3745 21.5893 83.9505 20.288C84.5265 18.9867 85.0172 17.6853 85.4225 16.384C85.6145 15.7867 85.7745 15.2107 85.9025 14.656C86.0305 14.08 86.0838 13.7067 86.0625 13.536V13.472C86.0625 13.3013 86.1478 13.2587 86.3185 13.344C86.5958 13.4933 86.7878 13.7173 86.8945 14.016C87.0012 14.2933 87.0545 14.6133 87.0545 14.976C87.0545 15.3813 87.0012 15.8187 86.8945 16.288C86.7878 16.736 86.6598 17.1413 86.5105 17.504C86.7878 17.12 87.0865 16.736 87.4065 16.352C87.7265 15.9467 88.0785 15.5627 88.4625 15.2C88.9105 14.752 89.3905 14.368 89.9025 14.048C90.4145 13.7067 90.9692 13.536 91.5665 13.536C92.1425 13.536 92.5585 13.664 92.8145 13.92C93.0918 14.176 93.2305 14.5173 93.2305 14.944C93.2305 15.392 93.1025 15.904 92.8465 16.48C92.5692 17.1413 92.2278 17.8027 91.8225 18.464C91.4385 19.1253 91.0865 19.7653 90.7665 20.384C90.7025 20.512 90.5958 20.7147 90.4465 20.992C90.3185 21.248 90.2012 21.536 90.0945 21.856C90.0518 22.0053 90.0092 22.1653 89.9665 22.336C89.9238 22.4853 89.9025 22.6453 89.9025 22.816C89.9025 23.0293 89.9452 23.232 90.0305 23.424C90.1372 23.5947 90.3292 23.68 90.6065 23.68C90.9692 23.68 91.3105 23.5627 91.6305 23.328C91.9718 23.072 92.2598 22.8053 92.4945 22.528C92.9852 21.9947 93.4332 21.408 93.8385 20.768C94.2652 20.1067 94.6812 19.4133 95.0865 18.688C95.1505 18.6027 95.1932 18.56 95.2145 18.56C95.2998 18.56 95.3425 18.656 95.3425 18.848C95.3425 18.976 95.3212 19.072 95.2785 19.136C94.8945 19.84 94.4892 20.5333 94.0625 21.216C93.6358 21.8773 93.1132 22.5173 92.4945 23.136C92.2172 23.4133 91.8972 23.6587 91.5345 23.872C91.1718 24.0853 90.7665 24.192 90.3185 24.192ZM105.844 24.224C105.119 24.224 104.596 23.9787 104.276 23.488C103.956 22.976 103.796 22.3467 103.796 21.6C103.796 20.8533 103.924 20.1173 104.18 19.392L104.5 18.464L103.316 20.288C103.017 20.7573 102.623 21.2907 102.132 21.888C101.663 22.464 101.161 22.9653 100.628 23.392C99.9453 23.9467 99.3267 24.224 98.772 24.224C98.2387 24.224 97.8227 24 97.524 23.552C97.2467 23.104 97.108 22.5387 97.108 21.856C97.108 21.3867 97.172 20.9173 97.3 20.448C97.62 19.2533 98.1107 18.1653 98.772 17.184C99.4333 16.1813 100.265 15.3173 101.268 14.592C101.695 14.272 102.239 14.016 102.9 13.824C103.561 13.6107 104.223 13.504 104.884 13.504C105.14 13.504 105.396 13.5253 105.652 13.568C105.908 13.6107 106.143 13.664 106.356 13.728C106.527 13.344 106.719 12.9173 106.932 12.448C107.167 11.9787 107.391 11.52 107.604 11.072C107.839 10.6027 108.031 10.2187 108.18 9.92C108.607 9.04533 109.14 8 109.78 6.784C110.42 5.568 111.167 4.43733 112.02 3.392C112.681 2.56 113.439 1.83467 114.292 1.216C115.167 0.575999 116.009 0.255999 116.82 0.255999C117.311 0.255999 117.673 0.405332 117.908 0.703999C118.164 1.00267 118.292 1.36533 118.292 1.792C118.292 2.176 118.217 2.528 118.068 2.848C117.727 3.616 117.183 4.42667 116.436 5.28C115.711 6.13333 114.921 6.96533 114.068 7.776C113.236 8.56533 112.489 9.28 111.828 9.92C111.273 10.4533 110.783 10.9227 110.356 11.328C109.929 11.712 109.535 12.096 109.172 12.48C108.809 12.864 108.415 13.2907 107.988 13.76C107.519 14.8267 107.081 15.8933 106.676 16.96C106.292 18.0267 105.972 19.0187 105.716 19.936C105.481 20.8533 105.364 21.6213 105.364 22.24C105.364 23.1147 105.631 23.584 106.164 23.648C106.527 23.648 106.868 23.5307 107.188 23.296C107.508 23.0613 107.785 22.8053 108.02 22.528C108.511 21.9947 108.959 21.408 109.364 20.768C109.769 20.128 110.175 19.4453 110.58 18.72C110.644 18.6347 110.708 18.592 110.772 18.592C110.857 18.592 110.9 18.656 110.9 18.784C110.9 18.8907 110.879 18.976 110.836 19.04C110.452 19.744 110.036 20.448 109.588 21.152C109.161 21.856 108.639 22.5173 108.02 23.136C107.743 23.4133 107.423 23.6693 107.06 23.904C106.697 24.1173 106.292 24.224 105.844 24.224ZM108.5 12.64C108.991 12.0853 109.449 11.5947 109.876 11.168C110.303 10.72 110.825 10.176 111.444 9.536C112.041 8.93867 112.724 8.23467 113.492 7.424C114.281 6.61333 115.017 5.792 115.7 4.96C116.404 4.128 116.916 3.392 117.236 2.752C117.492 2.24 117.62 1.824 117.62 1.504C117.62 0.970666 117.353 0.703999 116.82 0.703999C116.159 0.703999 115.465 1.01333 114.74 1.632C114.036 2.22933 113.343 3.05067 112.66 4.096C112.084 4.992 111.54 5.97333 111.028 7.04C110.516 8.08533 110.047 9.09867 109.62 10.08C109.193 11.0613 108.82 11.9147 108.5 12.64ZM99.444 23.232C99.828 23.232 100.287 22.976 100.82 22.464C101.375 21.9307 101.94 21.28 102.516 20.512C103.113 19.7227 103.657 18.9547 104.148 18.208C104.297 17.9947 104.489 17.6427 104.724 17.152C104.98 16.6613 105.247 16.1387 105.524 15.584C105.801 15.008 106.036 14.5067 106.228 14.08C106.1 14.0373 105.972 14.016 105.844 14.016C105.737 14.016 105.62 14.016 105.492 14.016C104.831 14.016 104.169 14.1973 103.508 14.56C102.868 14.9013 102.292 15.36 101.78 15.936C101.055 16.7253 100.447 17.5787 99.956 18.496C99.4653 19.392 99.124 20.1813 98.932 20.864C98.8253 21.248 98.772 21.6427 98.772 22.048C98.772 22.368 98.8147 22.6453 98.9 22.88C99.0067 23.1147 99.188 23.232 99.444 23.232ZM116.653 24.256C115.415 24.256 114.541 23.936 114.029 23.296C113.773 23.0187 113.591 22.688 113.485 22.304C113.378 21.92 113.325 21.5253 113.325 21.12C113.325 20.608 113.389 20.096 113.517 19.584C113.645 19.0507 113.805 18.56 113.997 18.112C114.295 17.408 114.69 16.704 115.181 16C115.671 15.2747 116.258 14.6667 116.941 14.176C117.645 13.6853 118.413 13.44 119.245 13.44C119.799 13.44 120.237 13.5787 120.557 13.856C120.877 14.1333 121.037 14.56 121.037 15.136C121.037 15.7973 120.834 16.4693 120.429 17.152C120.023 17.8133 119.511 18.368 118.893 18.816C118.274 19.264 117.634 19.488 116.973 19.488C116.375 19.488 115.853 19.2747 115.405 18.848C115.277 19.1893 115.17 19.5733 115.085 20C114.999 20.4053 114.957 20.8213 114.957 21.248C114.957 21.9093 115.085 22.4853 115.341 22.976C115.618 23.4667 116.109 23.712 116.813 23.712C117.325 23.712 117.815 23.584 118.285 23.328C118.775 23.0507 119.213 22.72 119.597 22.336C120.023 21.888 120.429 21.408 120.813 20.896C121.197 20.384 121.57 19.7867 121.933 19.104C121.975 19.04 122.007 19.008 122.029 19.008C122.114 19.008 122.157 19.104 122.157 19.296C122.157 19.424 122.114 19.5627 122.029 19.712C121.709 20.288 121.335 20.8747 120.909 21.472C120.482 22.048 120.045 22.5493 119.597 22.976C119.191 23.36 118.754 23.6693 118.285 23.904C117.815 24.1387 117.271 24.256 116.653 24.256ZM115.565 18.368C115.714 18.5813 115.885 18.7413 116.077 18.848C116.29 18.9333 116.503 18.976 116.717 18.976C117.229 18.976 117.762 18.784 118.317 18.4C118.871 17.9947 119.319 17.5253 119.661 16.992C119.81 16.7573 119.938 16.448 120.045 16.064C120.173 15.68 120.237 15.3173 120.237 14.976C120.237 14.6773 120.173 14.4213 120.045 14.208C119.938 13.9733 119.714 13.856 119.373 13.856C118.989 13.856 118.53 14.0907 117.997 14.56C117.485 15.0293 116.994 15.6373 116.525 16.384C116.375 16.64 116.205 16.9387 116.013 17.28C115.842 17.6213 115.693 17.984 115.565 18.368ZM131.363 23.424C131.001 23.7227 130.638 23.936 130.275 24.064C129.934 24.2133 129.614 24.288 129.315 24.288C128.782 24.288 128.334 24.1067 127.971 23.744C127.63 23.36 127.459 22.8587 127.459 22.24C127.459 21.8773 127.545 21.44 127.715 20.928C127.993 20.16 128.409 19.424 128.963 18.72C129.518 18.016 130.051 17.3013 130.563 16.576C130.883 16.1493 131.043 15.7333 131.043 15.328C131.043 15.1147 130.979 14.9333 130.851 14.784C130.745 14.6347 130.542 14.5493 130.243 14.528C130.073 14.4853 129.881 14.464 129.667 14.464C129.454 14.464 129.241 14.464 129.027 14.464H128.131C128.003 14.464 127.886 14.464 127.779 14.464C127.673 14.464 127.577 14.4533 127.491 14.432C127.406 14.9653 127.225 15.5627 126.947 16.224C126.691 16.8853 126.393 17.5467 126.051 18.208C125.71 18.8693 125.379 19.4667 125.059 20C124.974 20.128 124.899 20.192 124.835 20.192C124.771 20.192 124.739 20.128 124.739 20C124.739 19.8507 124.771 19.7333 124.835 19.648C125.283 18.7733 125.71 17.92 126.115 17.088C126.542 16.2347 126.83 15.3493 126.979 14.432C126.489 14.1547 126.158 13.6747 125.987 12.992C125.966 12.8853 125.945 12.7893 125.923 12.704C125.923 12.5973 125.923 12.5013 125.923 12.416C125.923 12.032 125.998 11.712 126.147 11.456C126.318 11.1787 126.51 11.04 126.723 11.04C127.022 11.04 127.267 11.328 127.459 11.904C127.502 12.0533 127.534 12.224 127.555 12.416C127.577 12.5867 127.587 12.7573 127.587 12.928C127.587 13.12 127.577 13.3013 127.555 13.472C127.555 13.6213 127.545 13.7493 127.523 13.856C127.673 13.8987 127.865 13.9307 128.099 13.952C128.355 13.9733 128.633 13.984 128.931 13.984C129.379 13.984 129.849 13.9733 130.339 13.952C130.83 13.9093 131.246 13.888 131.587 13.888C131.993 13.888 132.27 13.9733 132.419 14.144C132.569 14.3147 132.643 14.528 132.643 14.784C132.643 15.104 132.558 15.456 132.387 15.84C132.238 16.2027 132.089 16.512 131.939 16.768C131.662 17.28 131.395 17.7387 131.139 18.144C130.905 18.528 130.638 18.944 130.339 19.392C129.891 20.0747 129.561 20.704 129.347 21.28C129.155 21.8347 129.059 22.304 129.059 22.688C129.059 23.3493 129.305 23.68 129.795 23.68C130.201 23.68 130.723 23.392 131.363 22.816C131.769 22.4533 132.142 22.0267 132.483 21.536C132.846 21.024 133.166 20.512 133.443 20C133.742 19.4667 133.987 19.0293 134.179 18.688C134.222 18.624 134.265 18.592 134.307 18.592C134.393 18.592 134.435 18.6773 134.435 18.848C134.435 18.976 134.403 19.0933 134.339 19.2C133.977 19.8613 133.561 20.5867 133.091 21.376C132.622 22.1653 132.046 22.848 131.363 23.424ZM6.688 80.912C6.47467 80.912 6.13333 80.88 5.664 80.816C5.216 80.752 4.8 80.6133 4.416 80.4C4.032 80.1867 3.84 79.856 3.84 79.408C3.84 79.1307 3.904 78.9173 4.032 78.768C4.11733 78.6613 4.20267 78.608 4.288 78.608C4.37333 78.608 4.39467 78.6613 4.352 78.768C4.288 79.088 4.40533 79.3867 4.704 79.664C5.00267 79.9627 5.30133 80.1547 5.6 80.24C6.02667 80.3467 6.4 80.4 6.72 80.4C7.65867 80.4 8.50133 80.1333 9.248 79.6C10.016 79.0667 10.6987 78.448 11.296 77.744C10.4853 77.2533 9.77067 76.6667 9.152 75.984C8.55467 75.28 8.256 74.5013 8.256 73.648C8.256 73.3067 8.29867 72.9973 8.384 72.72C8.59733 71.9947 9.056 71.4187 9.76 70.992C9.97333 70.864 10.1973 70.7787 10.432 70.736C10.688 70.672 10.944 70.64 11.2 70.64C12.032 70.64 12.6187 70.832 12.96 71.216V71.248C12.96 71.2907 12.9173 71.344 12.832 71.408C12.768 71.472 12.7147 71.4827 12.672 71.44C12.5227 71.2267 12.256 71.12 11.872 71.12C11.4027 71.12 10.944 71.28 10.496 71.6C10.0693 71.92 9.792 72.3147 9.664 72.784C9.536 73.1893 9.472 73.5947 9.472 74C9.472 74.7253 9.67467 75.3653 10.08 75.92C10.5067 76.4533 11.0187 76.9227 11.616 77.328C11.7867 77.1147 11.936 76.9013 12.064 76.688C12.2133 76.4747 12.3627 76.2613 12.512 76.048C13.152 75.0667 13.7813 73.9467 14.4 72.688C15.0187 71.4293 15.6587 70.1387 16.32 68.816C16.9813 67.472 17.6747 66.1707 18.4 64.912C19.1467 63.6533 19.9573 62.5333 20.832 61.552C21.7067 60.5493 22.6667 59.7813 23.712 59.248C24.3947 58.8853 25.0453 58.704 25.664 58.704C26.0053 58.704 26.3147 58.7467 26.592 58.832C26.6773 58.8533 26.6987 58.9067 26.656 58.992C26.6347 59.0773 26.5813 59.1093 26.496 59.088C26.4107 59.0453 26.3147 59.024 26.208 59.024C26.1227 59.024 26.0267 59.024 25.92 59.024C24.8107 59.024 23.648 59.7387 22.432 61.168C21.4933 62.2773 20.6827 63.4613 20 64.72C19.3173 65.9573 18.688 67.2373 18.112 68.56C17.536 69.8613 16.9387 71.152 16.32 72.432C15.7227 73.712 15.008 74.9387 14.176 76.112C13.9627 76.432 13.728 76.7413 13.472 77.04C13.2373 77.3387 12.992 77.6267 12.736 77.904C13.0347 78.032 13.344 78.1387 13.664 78.224C14.0053 78.3093 14.3147 78.384 14.592 78.448C15.552 78.64 16.5333 78.736 17.536 78.736C18.9227 78.736 20.2667 78.576 21.568 78.256C22.8907 77.9573 24.0533 77.5413 25.056 77.008C26.4213 76.2827 27.6373 75.28 28.704 74C29.7707 72.72 30.6133 71.3013 31.232 69.744C31.872 68.1867 32.192 66.64 32.192 65.104C32.192 63.568 31.8293 62.128 31.104 60.784C30.3787 59.4187 29.1733 58.3093 27.488 57.456C26.4427 56.9227 25.28 56.5387 24 56.304C22.7413 56.048 21.472 55.92 20.192 55.92C18.3787 55.92 16.6187 56.2187 14.912 56.816C13.2267 57.392 11.8507 58.1813 10.784 59.184C10.2293 59.7173 9.728 60.432 9.28 61.328C8.85333 62.224 8.64 63.1093 8.64 63.984C8.64 64.176 8.65067 64.368 8.672 64.56C8.69333 64.752 8.736 64.944 8.8 65.136C8.992 65.7333 9.35467 66.192 9.888 66.512C10.4427 66.8107 11.072 66.96 11.776 66.96C12.3093 66.96 12.864 66.864 13.44 66.672C13.4613 66.672 13.472 66.672 13.472 66.672C13.4933 66.6507 13.5147 66.64 13.536 66.64C13.5787 66.64 13.6 66.6613 13.6 66.704C13.6 66.8107 13.536 66.8853 13.408 66.928C13.1093 67.0133 12.7893 67.088 12.448 67.152C12.128 67.216 11.808 67.248 11.488 67.248C10.8053 67.248 10.144 67.1307 9.504 66.896C8.864 66.64 8.34133 66.2453 7.936 65.712C7.552 65.1787 7.36 64.496 7.36 63.664C7.36 63.0027 7.456 62.384 7.648 61.808C7.84 61.232 8.10667 60.688 8.448 60.176C9.152 59.1307 10.144 58.2667 11.424 57.584C12.7253 56.88 14.1547 56.3573 15.712 56.016C17.2907 55.6533 18.848 55.472 20.384 55.472C21.6853 55.472 22.9867 55.6 24.288 55.856C25.5893 56.0907 26.8267 56.4533 28 56.944C30.1333 57.8613 31.6693 59.0987 32.608 60.656C33.568 62.192 34.048 63.8347 34.048 65.584C34.048 67.2053 33.6853 68.8267 32.96 70.448C32.256 72.048 31.264 73.5093 29.984 74.832C28.7253 76.1333 27.2533 77.168 25.568 77.936C24.5227 78.4053 23.3813 78.7573 22.144 78.992C20.928 79.2267 19.6907 79.344 18.432 79.344C17.7067 79.344 16.992 79.3013 16.288 79.216C15.584 79.152 14.8907 79.0453 14.208 78.896C13.9307 78.832 13.632 78.7467 13.312 78.64C12.992 78.5547 12.672 78.4373 12.352 78.288C11.968 78.6293 11.5627 78.96 11.136 79.28C10.7307 79.6213 10.2933 79.9093 9.824 80.144C9.33333 80.3787 8.82133 80.56 8.288 80.688C7.776 80.8373 7.24267 80.912 6.688 80.912ZM43.991 78.224C43.2657 78.224 42.7537 78.0107 42.455 77.584C42.1777 77.1573 42.039 76.6987 42.039 76.208C42.039 75.9947 42.0603 75.792 42.103 75.6C42.1457 75.3867 42.199 75.184 42.263 74.992C42.6257 74.0533 43.127 73.1573 43.767 72.304C44.407 71.4507 44.9403 70.5653 45.367 69.648C45.5163 69.3707 45.591 69.1147 45.591 68.88C45.591 68.624 45.5163 68.432 45.367 68.304C45.2177 68.176 45.0577 68.112 44.887 68.112C44.4817 68.112 44.0337 68.2933 43.543 68.656C43.0737 68.9973 42.615 69.4347 42.167 69.968C41.7617 70.4373 41.3457 70.9813 40.919 71.6C40.4923 72.1973 40.087 72.8373 39.703 73.52C39.3403 74.1387 38.967 74.7893 38.583 75.472C38.199 76.1333 37.8897 76.6987 37.655 77.168C37.4843 77.5307 37.303 77.7653 37.111 77.872C36.919 77.9787 36.7377 78.032 36.567 78.032C36.4817 78.032 36.3963 78.0213 36.311 78C36.2257 78 36.151 78 36.087 78C36.279 77.2747 36.631 76.2827 37.143 75.024C37.6763 73.744 38.3057 72.2293 39.031 70.48C39.4363 69.5413 39.9163 68.464 40.471 67.248C41.0257 66.0107 41.655 64.752 42.359 63.472C43.063 62.1707 43.8417 60.944 44.695 59.792C45.5483 58.6187 46.4657 57.5947 47.447 56.72C48.4497 55.8453 49.5057 55.2373 50.615 54.896C50.743 54.8747 50.871 54.8533 50.999 54.832C51.127 54.8107 51.255 54.8 51.383 54.8C51.703 54.8 51.9803 54.8747 52.215 55.024C52.5137 55.216 52.663 55.5573 52.663 56.048C52.663 56.3893 52.567 56.8053 52.375 57.296C52.0337 58.1493 51.4683 59.0667 50.679 60.048C49.911 61.0293 49.0043 62.032 47.959 63.056C46.6577 64.3147 45.4097 65.424 44.215 66.384C43.0203 67.344 42.0603 68.1013 41.335 68.656C40.9083 69.5733 40.5563 70.3733 40.279 71.056C40.0017 71.7173 39.8203 72.1973 39.735 72.496C40.0763 71.984 40.4603 71.4293 40.887 70.832C41.335 70.2133 41.7297 69.7333 42.071 69.392C42.5617 68.9013 43.0523 68.4853 43.543 68.144C44.0337 67.8027 44.5137 67.6107 44.983 67.568C45.7083 67.504 46.231 67.6 46.551 67.856C46.871 68.0907 47.031 68.4427 47.031 68.912C47.031 69.3813 46.903 69.904 46.647 70.48C46.3697 71.1413 46.039 71.8027 45.655 72.464C45.271 73.1253 44.919 73.7653 44.599 74.384C44.5137 74.5547 44.3537 74.8853 44.119 75.376C43.9057 75.8453 43.767 76.2933 43.703 76.72C43.703 76.7413 43.6923 76.7733 43.671 76.816C43.671 76.8587 43.671 76.9013 43.671 76.944C43.671 77.1787 43.735 77.36 43.863 77.488C43.991 77.5947 44.1403 77.648 44.311 77.648C44.6737 77.648 45.015 77.5307 45.335 77.296C45.655 77.0613 45.9323 76.8053 46.167 76.528C46.6577 75.9947 47.1057 75.408 47.511 74.768C47.9163 74.128 48.3217 73.4453 48.727 72.72C48.791 72.6347 48.855 72.592 48.919 72.592C49.0043 72.592 49.047 72.656 49.047 72.784C49.047 72.8907 49.0257 72.976 48.983 73.04C48.599 73.744 48.183 74.448 47.735 75.152C47.3083 75.856 46.7857 76.5173 46.167 77.136C45.8897 77.4133 45.5697 77.6693 45.207 77.904C44.8443 78.1173 44.439 78.224 43.991 78.224ZM41.623 68.016C42.903 67.0773 44.055 66.128 45.079 65.168C46.103 64.208 47.1377 63.1733 48.183 62.064C48.4817 61.744 48.8657 61.3173 49.335 60.784C49.8257 60.2507 50.3057 59.6747 50.775 59.056C51.2443 58.4373 51.5963 57.84 51.831 57.264C52.0443 56.7733 52.151 56.3573 52.151 56.016C52.151 55.44 51.8843 55.152 51.351 55.152C51.0737 55.152 50.7643 55.2373 50.423 55.408C50.0817 55.5787 49.7617 55.8133 49.463 56.112C48.439 57.072 47.4363 58.2453 46.455 59.632C45.495 60.9973 44.599 62.416 43.767 63.888C42.9563 65.36 42.2417 66.736 41.623 68.016ZM58.5528 78.224C57.8701 78.224 57.4008 78.0107 57.1448 77.584C56.8888 77.136 56.7608 76.6453 56.7608 76.112C56.7608 76.0053 56.7714 75.824 56.7928 75.568C56.8354 75.2907 56.8781 75.0347 56.9208 74.8C56.6221 75.2053 56.2594 75.6533 55.8328 76.144C55.4274 76.6347 55.0114 77.0507 54.5848 77.392C53.9021 77.9467 53.2834 78.224 52.7288 78.224C52.1954 78.224 51.7794 78 51.4808 77.552C51.2034 77.104 51.0648 76.5387 51.0648 75.856C51.0648 74.9813 51.2568 74.096 51.6408 73.2C52.0248 72.304 52.5261 71.4613 53.1448 70.672C53.7848 69.8613 54.4888 69.168 55.2568 68.592C55.7048 68.272 56.2488 68.016 56.8888 67.824C57.5501 67.6107 58.2114 67.504 58.8728 67.504C59.6194 67.504 60.2701 67.6213 60.8248 67.856C61.4008 68.0693 61.7954 68.3787 62.0088 68.784C61.5608 69.36 61.1021 70.0747 60.6328 70.928C60.1634 71.76 59.7581 72.5173 59.4168 73.2C59.1821 73.6693 58.9261 74.256 58.6488 74.96C58.3714 75.6427 58.2328 76.2293 58.2328 76.72C58.2328 76.9333 58.2861 77.1467 58.3928 77.36C58.4994 77.5733 58.7021 77.68 59.0008 77.68C59.3421 77.68 59.6728 77.552 59.9928 77.296C60.3128 77.04 60.5794 76.784 60.7928 76.528C61.2834 75.9947 61.7314 75.408 62.1368 74.768C62.5421 74.128 62.9474 73.4453 63.3528 72.72C63.4168 72.6347 63.4808 72.592 63.5448 72.592C63.6301 72.592 63.6728 72.656 63.6728 72.784C63.6728 72.8907 63.6514 72.976 63.6088 73.04C63.2461 73.744 62.8408 74.448 62.3928 75.152C61.9448 75.856 61.4114 76.5173 60.7928 77.136C60.4941 77.4347 60.1421 77.6907 59.7368 77.904C59.3314 78.1173 58.9368 78.224 58.5528 78.224ZM53.4328 77.232C53.8381 77.232 54.2754 77.0187 54.7448 76.592C55.2354 76.144 55.7048 75.6107 56.1528 74.992C56.6221 74.352 57.0381 73.744 57.4008 73.168C57.7848 72.5707 58.0834 72.112 58.2968 71.792C58.7448 71.088 59.1608 70.5013 59.5448 70.032C59.9288 69.5627 60.5261 69.2 61.3368 68.944C61.3794 68.944 61.4114 68.944 61.4328 68.944C61.4754 68.9227 61.5181 68.912 61.5608 68.912C61.3688 68.6133 61.0488 68.3893 60.6008 68.24C60.1528 68.0907 59.7154 68.016 59.2888 68.016C58.6274 68.016 57.9874 68.1973 57.3688 68.56C56.7501 68.9227 56.1848 69.3813 55.6728 69.936C55.1821 70.512 54.7021 71.1413 54.2328 71.824C53.7634 72.5067 53.3794 73.2 53.0808 73.904C52.8034 74.608 52.6648 75.28 52.6648 75.92C52.6648 76.2613 52.7181 76.5707 52.8248 76.848C52.9528 77.104 53.1554 77.232 53.4328 77.232ZM73.7662 78.224C73.1689 78.224 72.6462 78 72.1982 77.552C71.7716 77.104 71.5582 76.4533 71.5582 75.6C71.5582 75.28 71.5902 74.9493 71.6542 74.608C71.4409 75.0133 71.1529 75.4507 70.7902 75.92C70.4276 76.368 70.0649 76.7733 69.7022 77.136C69.3609 77.4773 68.9556 77.7547 68.4862 77.968C68.0382 78.16 67.5902 78.2347 67.1422 78.192C66.5449 78.128 66.1182 77.9147 65.8622 77.552C65.6276 77.1893 65.5102 76.7413 65.5102 76.208C65.5102 75.504 65.6489 74.736 65.9262 73.904C66.2249 73.072 66.5662 72.2827 66.9502 71.536C67.3342 70.768 67.6436 70.1707 67.8782 69.744C68.3476 68.9547 68.8169 68.464 69.2862 68.272C69.7769 68.08 70.3742 67.984 71.0782 67.984C70.8649 68.048 70.5876 68.304 70.2462 68.752C69.9049 69.1787 69.5422 69.712 69.1582 70.352C68.7956 70.992 68.4436 71.6853 68.1022 72.432C67.7822 73.1573 67.5156 73.872 67.3022 74.576C67.1102 75.2587 67.0142 75.8453 67.0142 76.336C67.0142 76.6987 67.0782 76.9973 67.2062 77.232C67.3556 77.4667 67.5796 77.584 67.8782 77.584C68.1342 77.584 68.4329 77.488 68.7742 77.296C69.1156 77.0827 69.4249 76.8267 69.7022 76.528C70.6409 75.4827 71.3982 74.3413 71.9742 73.104C72.5716 71.8453 73.2329 70.5973 73.9582 69.36C74.4276 68.5707 74.8969 68.08 75.3662 67.888C75.8569 67.696 76.4542 67.6 77.1582 67.6C76.9662 67.664 76.6889 67.92 76.3262 68.368C75.9849 68.7947 75.6116 69.3387 75.2062 70C74.8222 70.6613 74.4489 71.3653 74.0862 72.112C73.7449 72.8587 73.4569 73.5733 73.2222 74.256C73.0089 74.9387 72.9022 75.5147 72.9022 75.984C72.9022 76.624 73.0729 77.0507 73.4142 77.264C73.7556 77.456 74.0649 77.552 74.3422 77.552C74.8969 77.552 75.4196 77.3707 75.9102 77.008C76.4222 76.6453 76.8809 76.1867 77.2862 75.632C77.7129 75.0773 78.0756 74.512 78.3742 73.936C78.6942 73.3387 78.9396 72.8267 79.1102 72.4C79.0249 72.0587 78.9822 71.4507 78.9822 70.576C78.9822 70.0427 79.0142 69.4987 79.0782 68.944C79.1422 68.3893 79.2489 67.9093 79.3982 67.504C79.6116 66.9707 79.9422 66.704 80.3902 66.704C80.5609 66.704 80.7102 66.7893 80.8382 66.96C80.9876 67.1307 81.0623 67.4187 81.0623 67.824C81.0623 68.4213 80.9663 69.04 80.7743 69.68C80.6036 70.2987 80.4649 70.7253 80.3582 70.96C80.2729 71.1733 80.1662 71.44 80.0382 71.76C79.9102 72.0587 79.7609 72.3893 79.5902 72.752C79.5689 73.4133 79.6756 73.9573 79.9102 74.384C80.1662 74.7893 80.4756 74.992 80.8382 74.992C81.2436 74.992 81.5956 74.8747 81.8942 74.64C82.2142 74.384 82.4809 74.0853 82.6943 73.744C82.9289 73.3813 83.1209 73.0507 83.2703 72.752C83.3342 72.624 83.4196 72.56 83.5262 72.56C83.6116 72.56 83.6542 72.6133 83.6542 72.72C83.6542 72.784 83.6222 72.88 83.5582 73.008C83.3022 73.584 82.9396 74.128 82.4702 74.64C82.0009 75.152 81.4249 75.408 80.7422 75.408C80.4009 75.408 80.0596 75.2693 79.7182 74.992C79.3982 74.7147 79.2062 74.2773 79.1422 73.68C78.7796 74.32 78.3422 74.992 77.8302 75.696C77.3396 76.4 76.7636 76.9973 76.1022 77.488C75.4409 77.9787 74.6622 78.224 73.7662 78.224ZM93.1403 78.224C92.4576 78.224 91.9883 78.0107 91.7323 77.584C91.4763 77.136 91.3483 76.6453 91.3483 76.112C91.3483 76.0053 91.3589 75.824 91.3803 75.568C91.4229 75.2907 91.4656 75.0347 91.5083 74.8C91.2096 75.2053 90.8469 75.6533 90.4203 76.144C90.0149 76.6347 89.5989 77.0507 89.1723 77.392C88.4896 77.9467 87.8709 78.224 87.3163 78.224C86.7829 78.224 86.3669 78 86.0683 77.552C85.7909 77.104 85.6523 76.5387 85.6523 75.856C85.6523 74.9813 85.8443 74.096 86.2283 73.2C86.6123 72.304 87.1136 71.4613 87.7323 70.672C88.3723 69.8613 89.0763 69.168 89.8443 68.592C90.2923 68.272 90.8363 68.016 91.4763 67.824C92.1376 67.6107 92.7989 67.504 93.4603 67.504C94.2069 67.504 94.8576 67.6213 95.4123 67.856C95.9883 68.0693 96.3829 68.3787 96.5963 68.784C96.1483 69.36 95.6896 70.0747 95.2203 70.928C94.7509 71.76 94.3456 72.5173 94.0043 73.2C93.7696 73.6693 93.5136 74.256 93.2363 74.96C92.9589 75.6427 92.8203 76.2293 92.8203 76.72C92.8203 76.9333 92.8736 77.1467 92.9803 77.36C93.0869 77.5733 93.2896 77.68 93.5883 77.68C93.9296 77.68 94.2603 77.552 94.5803 77.296C94.9003 77.04 95.1669 76.784 95.3803 76.528C95.8709 75.9947 96.3189 75.408 96.7243 74.768C97.1296 74.128 97.5349 73.4453 97.9403 72.72C98.0043 72.6347 98.0683 72.592 98.1323 72.592C98.2176 72.592 98.2603 72.656 98.2603 72.784C98.2603 72.8907 98.2389 72.976 98.1963 73.04C97.8336 73.744 97.4283 74.448 96.9803 75.152C96.5323 75.856 95.9989 76.5173 95.3803 77.136C95.0816 77.4347 94.7296 77.6907 94.3243 77.904C93.9189 78.1173 93.5243 78.224 93.1403 78.224ZM88.0203 77.232C88.4256 77.232 88.8629 77.0187 89.3323 76.592C89.8229 76.144 90.2923 75.6107 90.7403 74.992C91.2096 74.352 91.6256 73.744 91.9883 73.168C92.3723 72.5707 92.6709 72.112 92.8843 71.792C93.3323 71.088 93.7483 70.5013 94.1323 70.032C94.5163 69.5627 95.1136 69.2 95.9243 68.944C95.9669 68.944 95.9989 68.944 96.0203 68.944C96.0629 68.9227 96.1056 68.912 96.1483 68.912C95.9563 68.6133 95.6363 68.3893 95.1883 68.24C94.7403 68.0907 94.3029 68.016 93.8763 68.016C93.2149 68.016 92.5749 68.1973 91.9563 68.56C91.3376 68.9227 90.7723 69.3813 90.2603 69.936C89.7696 70.512 89.2896 71.1413 88.8203 71.824C88.3509 72.5067 87.9669 73.2 87.6683 73.904C87.3909 74.608 87.2523 75.28 87.2523 75.92C87.2523 76.2613 87.3056 76.5707 87.4123 76.848C87.5403 77.104 87.7429 77.232 88.0203 77.232ZM106.85 78.192C106.231 78.192 105.74 78 105.378 77.616C105.036 77.232 104.866 76.752 104.866 76.176C104.866 75.8987 104.919 75.5787 105.026 75.216C105.324 74.2773 105.794 73.3493 106.434 72.432C107.095 71.4933 107.639 70.5653 108.066 69.648C108.215 69.3493 108.29 69.0827 108.29 68.848C108.29 68.6133 108.215 68.4427 108.066 68.336C107.938 68.208 107.778 68.144 107.586 68.144C107.308 68.144 106.956 68.2613 106.53 68.496C106.124 68.7093 105.655 69.1253 105.122 69.744C104.802 70.128 104.439 70.5973 104.034 71.152C103.628 71.7067 103.298 72.208 103.042 72.656C102.615 73.3813 102.231 74.1173 101.89 74.864C101.548 75.5893 101.25 76.2613 100.994 76.88C100.78 77.3707 100.524 77.6907 100.226 77.84C99.9271 77.968 99.6391 78.0213 99.3618 78C99.0844 77.9787 98.8711 77.9787 98.7218 78C99.3191 76.8267 99.9058 75.5893 100.482 74.288C101.058 72.9867 101.548 71.6853 101.954 70.384C102.146 69.7867 102.306 69.2107 102.434 68.656C102.562 68.08 102.615 67.7067 102.594 67.536V67.472C102.594 67.3013 102.679 67.2587 102.85 67.344C103.127 67.4933 103.319 67.7173 103.426 68.016C103.532 68.2933 103.586 68.6133 103.586 68.976C103.586 69.3813 103.532 69.8187 103.426 70.288C103.319 70.736 103.191 71.1413 103.042 71.504C103.319 71.12 103.618 70.736 103.938 70.352C104.258 69.9467 104.61 69.5627 104.994 69.2C105.442 68.752 105.922 68.368 106.434 68.048C106.946 67.7067 107.5 67.536 108.098 67.536C108.674 67.536 109.09 67.664 109.346 67.92C109.623 68.176 109.762 68.5173 109.762 68.944C109.762 69.392 109.634 69.904 109.378 70.48C109.1 71.1413 108.759 71.8027 108.354 72.464C107.97 73.1253 107.618 73.7653 107.298 74.384C107.234 74.512 107.127 74.7147 106.978 74.992C106.85 75.248 106.732 75.536 106.626 75.856C106.583 76.0053 106.54 76.1653 106.498 76.336C106.455 76.4853 106.434 76.6453 106.434 76.816C106.434 77.0293 106.476 77.232 106.562 77.424C106.668 77.5947 106.86 77.68 107.138 77.68C107.5 77.68 107.842 77.5627 108.162 77.328C108.503 77.072 108.791 76.8053 109.026 76.528C109.516 75.9947 109.964 75.408 110.37 74.768C110.796 74.1067 111.212 73.4133 111.618 72.688C111.682 72.6027 111.724 72.56 111.746 72.56C111.831 72.56 111.874 72.656 111.874 72.848C111.874 72.976 111.852 73.072 111.81 73.136C111.426 73.84 111.02 74.5333 110.594 75.216C110.167 75.8773 109.644 76.5173 109.026 77.136C108.748 77.4133 108.428 77.6587 108.066 77.872C107.703 78.0853 107.298 78.192 106.85 78.192Z" fill="#BFBDBD"/>
</g>
<defs>
<filter id="filter0_i_42_4" x="0.832001" y="0.256104" width="133.603" height="84.656" filterUnits="userSpaceOnUse" color-interpolation-filters="sRGB">
<feFlood flood-opacity="0" result="BackgroundImageFix"/>
<feBlend mode="normal" in="SourceGraphic" in2="BackgroundImageFix" result="shape"/>
<feColorMatrix in="SourceAlpha" type="matrix" values="0 0 0 0 0 0 0 0 0 0 0 0 0 0 0 0 0 0 127 0" result="hardAlpha"/>
<feOffset dy="4"/>
<feGaussianBlur stdDeviation="2"/>
<feComposite in2="hardAlpha" operator="arithmetic" k2="-1" k3="1"/>
<feColorMatrix type="matrix" values="0 0 0 0 0 0 0 0 0 0 0 0 0 0 0 0 0 0 0.25 0"/>
<feBlend mode="normal" in2="shape" result="effect1_innerShadow_42_4"/>
</filter>
</defs>
</svg>
